<svg id="Layer_1" data-name="Layer 1" xmlns="http://www.w3.org/2000/svg" viewBox="0 0 197.08 36.45"><path d="M13.59,26.56,7.47,23V9.11l9.86-5.69-1.55-.89L5.93,8.22V22.13L0,18.71V9.11L2.19,7.85v9.6l1.55.89V7l.54-.32L15.79,0l5.92,3.42-12,7v6.73H21.9V14.69l-6.12-3.53L11.9,13.4V10.87l3.88-2.24,12,7V27l1.55-.9V14.7l-12-7,5.93-3.43,8.31,4.8v2.54l-8.32-4.8-1.54.88,9.86,5.69V27.34l-.55.31-5.38,3.09V16.85L24.09,16v4.53h0V23l-2.2,1.26h0l-2.23,1.29h0L12.05,30,2.19,24.29v1.78l9.86,5.69,12-7v6.84l-8.31,4.8-2.19-1.26,8.31-4.8V28.61L12.05,34.3l-12-7V20.49l12.05,7,1.54-.89Zm8.31-4.8V19.34H9.66v2.42l6.12,3.53.7-.4h0Z"/><path d="M58.19,26.86V9.59H55v7.29h-8.5V9.59H43.19V26.86h3.26v-7H55v7Zm18.74-3.21H67.22v-3.9h9.37v-3H67.22v-4h9.71V9.55H64V26.86H76.93V23.65ZM89.65,16,85.33,9.55H81.75v.14l5.83,8.41-6,8.66v.1h3.66l4.42-6.5,4.42,6.5h3.66v-.1l-6-8.66,5.86-8.41V9.55H94L89.65,16Zm26.53,10.86h3.55L112,9.55h-3.56l-7.75,17.31h3.53l1.48-3.26h9l1.46,3.26Zm-2.77-6.3H107l3.21-7.38,3.21,7.38Zm12-1.9h5.93c2.32,0,4.77,1,4.79,3.66s-2.79,3.26-5,3.26h-5.76V18.66Zm0-8h5.76c2.15,0,4.42,1.07,4.42,3.6s-2.17,3.12-4.25,3.12h-5.93V10.68Zm5.76-1.13h-7.09V26.86h7.09c3,0,6.27-1,6.27-4.52A4.43,4.43,0,0,0,134.08,18a3.8,3.8,0,0,0,2.82-3.71c0-3.3-2.77-4.73-5.68-4.73Zm28.45,17.31L151.91,9.55h-1.46L142.7,26.86h1.43L146,22.61h10.32l1.9,4.25Zm-13.14-5.48,4.64-10.55,4.64,10.55Zm31.19-9.12c-1.71-2.54-3.86-2.94-6.33-2.94-2.84,0-6.64,1.14-6.57,4.79,0,3.19,3.24,3.83,6.4,4.45,2.84.54,5.71,1.11,5.68,3.71,0,3.06-3.38,3.65-5.51,3.65s-4.84-1-5.9-3.14l-1.19.6c1.34,2.64,4.4,3.75,7.09,3.75,2.89,0,6.82-.94,6.85-4.84,0-3.73-3.46-4.32-6.8-5-2.91-.55-5.28-1.07-5.28-3.26,0-2.77,3.21-3.51,5.23-3.51s4,.32,5.24,2.34l1.09-.64Zm8.44-1.45h10.62V9.55H184.85V26.86h12.23V25.58H186.16V18.76h10.13V17.55H186.16Z"/></svg>